# xmcd
#
# Track frame offsets: 
#        150
#        22010
#        48665
#        57870
#        71707
#        84325
#        106870
#        127905
#        140942
#        153990
#        179677
#        191272
#        204052
#        221942
#        244245
#        276640
#
# Disc length: 3761 seconds
#
# Revision: 3
# Processed by: cddbd v1.5.2PL0 Copyright (c) Steve Scherf et al.
# Submitted via: ExactAudioCopy v0.99pb4
#
DISCID=f40eaf10
DTITLE=Various Artist - Blue Berlin - Blue Note Plays The Music Of Irving Ber
DTITLE=lin
DYEAR=1992
DGENRE=Jazz
TTITLE0=Jackie McLean - Let's Face The Music And Dance
TTITLE1=Horace Parlan - The Song Is Ended
TTITLE2=Peggy Lee - Maybe It's Because I Love You To Much
TTITLE3=Lou Donaldson - Cheek To Cheek
TTITLE4=Elmo Hope - It's A Loveley Day Today
TTITLE5=Lee Morgan - Who Do You Love, I Hope
TTITLE6=Miles Davis - How Deep Is The Ocean
TTITLE7=Art Tatum - Blue Skies
TTITLE8=Jutta Hipp - Blue Skies
TTITLE9=Hank Mobley - Rememener
TTITLE10=Stan Kenton - Say It Isn't So
TTITLE11=Bud Shank And Bob Cooper - What'll I Do
TTITLE12=Eddie Davis And Joe Newman - Marie
TTITLE13=Bud Powel - The Best Thing For You
TTITLE14=Art Blakey And Paul Chambers - I've Got My Love To Keep Me Wa
TTITLE14=rm
TTITLE15=Sheila Jordan - Let's Face The Music And Dance
EXTD=
EXTT0=
EXTT1=
EXTT2=
EXTT3=
EXTT4=
EXTT5=
EXTT6=
EXTT7=
EXTT8=
EXTT9=
EXTT10=
EXTT11=
EXTT12=
EXTT13=
EXTT14=
EXTT15=
PLAYORDER=
